<svg width="30" height="30" viewBox="0 0 30 30" fill="none" xmlns="http://www.w3.org/2000/svg">
<path d="M11.4501 13.5875C11.3251 13.575 11.1751 13.575 11.0376 13.5875C8.06257 13.4875 5.70007 11.05 5.70007 8.05C5.70007 4.9875 8.17507 2.5 11.2501 2.5C14.3126 2.5 16.8001 4.9875 16.8001 8.05C16.7876 11.05 14.4251 13.4875 11.4501 13.5875Z" stroke="#F3F3F3" stroke-width="2" stroke-linecap="round" stroke-linejoin="round"/>
<path d="M20.5125 5C22.9375 5 24.8875 6.9625 24.8875 9.375C24.8875 11.7375 23.0125 13.6625 20.675 13.75C20.575 13.7375 20.4625 13.7375 20.35 13.75" stroke="#F3F3F3" stroke-width="2" stroke-linecap="round" stroke-linejoin="round"/>
<path d="M5.19996 18.2C2.17496 20.225 2.17496 23.525 5.19996 25.5375C8.63746 27.8375 14.275 27.8375 17.7125 25.5375C20.7375 23.5125 20.7375 20.2125 17.7125 18.2C14.2875 15.9125 8.64996 15.9125 5.19996 18.2Z" stroke="#F3F3F3" stroke-width="2" stroke-linecap="round" stroke-linejoin="round"/>
<path d="M22.9251 25C23.8251 24.8125 24.6751 24.45 25.3751 23.9125C27.3251 22.45 27.3251 20.0375 25.3751 18.575C24.6876 18.05 23.8501 17.7 22.9626 17.5" stroke="#F3F3F3" stroke-width="2" stroke-linecap="round" stroke-linejoin="round"/>
</svg>
