<svg width="30" height="30" viewBox="0 0 30 30" fill="none" xmlns="http://www.w3.org/2000/svg">
<path d="M8.75 15C3.75 15 3.75 17.2375 3.75 20V21.25C3.75 24.7 3.75 27.5 10 27.5H20C25 27.5 26.25 24.7 26.25 21.25V20C26.25 17.2375 26.25 15 21.25 15C20 15 19.65 15.2625 19 15.75L17.725 17.1C16.25 18.675 13.75 18.675 12.2625 17.1L11 15.75C10.35 15.2625 10 15 8.75 15Z" stroke="#F3F3F3" stroke-width="2" stroke-miterlimit="10" stroke-linecap="round" stroke-linejoin="round"/>
<path d="M23.75 15V7.5C23.75 4.7375 23.75 2.5 18.75 2.5H11.25C6.25 2.5 6.25 4.7375 6.25 7.5V15" stroke="#F3F3F3" stroke-width="2" stroke-miterlimit="10" stroke-linecap="round" stroke-linejoin="round"/>
<path d="M13.1875 11.5371H17.35" stroke="#F3F3F3" stroke-width="2" stroke-linecap="round" stroke-linejoin="round"/>
<path d="M12.15 7.78711H18.4" stroke="#F3F3F3" stroke-width="2" stroke-linecap="round" stroke-linejoin="round"/>
</svg>
