<svg width="32" height="32" viewBox="0 0 32 32" fill="none" xmlns="http://www.w3.org/2000/svg">
<g clip-path="url(#clip0_533_3342)">
<path d="M15.9996 18.7362C16.3129 18.7362 16.5669 18.4822 16.5669 18.1689C16.5669 17.8556 16.3129 17.6016 15.9996 17.6016C15.6863 17.6016 15.4323 17.8556 15.4323 18.1689C15.4323 18.4822 15.6863 18.7362 15.9996 18.7362Z" fill="#F3F3F3"/>
<path d="M15.9996 18.7362C16.3129 18.7362 16.5669 18.4822 16.5669 18.1689C16.5669 17.8556 16.3129 17.6016 15.9996 17.6016C15.6863 17.6016 15.4323 17.8556 15.4323 18.1689C15.4323 18.4822 15.6863 18.7362 15.9996 18.7362Z" stroke="#F3F3F3"/>
<path d="M15.9996 16.7069C16.3129 16.7069 16.5669 16.4529 16.5669 16.1396C16.5669 15.8263 16.3129 15.5723 15.9996 15.5723C15.6863 15.5723 15.4323 15.8263 15.4323 16.1396C15.4323 16.4529 15.6863 16.7069 15.9996 16.7069Z" fill="#F3F3F3"/>
<path d="M15.9996 16.7069C16.3129 16.7069 16.5669 16.4529 16.5669 16.1396C16.5669 15.8263 16.3129 15.5723 15.9996 15.5723C15.6863 15.5723 15.4323 15.8263 15.4323 16.1396C15.4323 16.4529 15.6863 16.7069 15.9996 16.7069Z" stroke="#F3F3F3"/>
<path d="M19.6899 20.0869C19.5852 19.8284 19.3108 19.6807 19.0371 19.7348C18.7632 19.7895 18.5662 20.0319 18.5687 20.3094C18.5687 20.4928 18.4194 20.6421 18.2359 20.6421C18.1243 20.6421 18.0206 20.5865 17.9585 20.4933L17.9579 20.4924C17.9557 20.4891 17.9536 20.486 17.9514 20.4829L17.9206 20.439C17.9174 20.4345 17.9141 20.4299 17.9107 20.4255C17.6197 20.037 17.1567 19.8145 16.6711 19.832C16.434 19.8401 16.204 19.9062 15.9999 20.0209C15.7959 19.9062 15.5659 19.8402 15.3287 19.832C14.844 19.8147 14.3802 20.0371 14.0892 20.4255L14.0794 20.439L14.0486 20.4829L14.0414 20.4933C13.9793 20.5865 13.8756 20.6421 13.764 20.6421C13.5805 20.6421 13.4312 20.4928 13.4312 20.3112C13.4337 20.032 13.2369 19.7895 12.963 19.7349C12.6897 19.6804 12.415 19.8281 12.31 20.0867C12.1964 20.3669 12.1388 20.6633 12.1388 20.9679C12.1388 21.5978 12.3882 22.1905 12.8411 22.6367C13.2941 23.0831 13.8892 23.3254 14.521 23.3142C15.0704 23.3061 15.5907 23.1064 16 22.7603C16.4092 23.1064 16.9296 23.306 17.4789 23.3142C17.4908 23.3144 17.5027 23.3145 17.5145 23.3145C18.1315 23.3145 18.7144 23.0747 19.1588 22.6368C19.6117 22.1907 19.8611 21.598 19.8611 20.9679C19.8611 20.6634 19.8035 20.367 19.6899 20.0869ZM18.4067 21.8732C18.1597 22.1165 17.8379 22.249 17.495 22.2425C17.0724 22.2362 16.681 22.0207 16.4482 21.6661C16.3491 21.5152 16.1807 21.4243 16.0001 21.4243C15.8195 21.4243 15.6512 21.5152 15.552 21.6661C15.3192 22.0208 14.9279 22.2364 14.5052 22.2425C14.1627 22.2459 13.8405 22.1164 13.5936 21.8732C13.5309 21.8114 13.4753 21.7445 13.4272 21.6735C13.5352 21.7002 13.648 21.7143 13.7642 21.7143C14.2326 21.7143 14.6678 21.4826 14.9295 21.094L14.9513 21.063C15.0334 20.9569 15.1565 20.8984 15.2919 20.9034C15.4057 20.9074 15.5145 20.9612 15.5904 21.0511C15.6922 21.1718 15.8421 21.2415 16 21.2415C16.158 21.2415 16.3079 21.1718 16.4097 21.0511C16.4856 20.9611 16.5944 20.9073 16.7082 20.9034C16.8432 20.8999 16.9667 20.9569 17.0489 21.063L17.0707 21.094C17.3325 21.4825 17.7676 21.7143 18.2361 21.7143C18.3522 21.7143 18.4651 21.7002 18.573 21.6735C18.525 21.7444 18.4694 21.8114 18.4067 21.8732Z" fill="#F3F3F3"/>
<path d="M19.6899 20.0869C19.5852 19.8284 19.3108 19.6807 19.0371 19.7348C18.7632 19.7895 18.5662 20.0319 18.5687 20.3094C18.5687 20.4928 18.4194 20.6421 18.2359 20.6421C18.1243 20.6421 18.0206 20.5865 17.9585 20.4933L17.9579 20.4924C17.9557 20.4891 17.9536 20.486 17.9514 20.4829L17.9206 20.439C17.9174 20.4345 17.9141 20.4299 17.9107 20.4255C17.6197 20.037 17.1567 19.8145 16.6711 19.832C16.434 19.8401 16.204 19.9062 15.9999 20.0209C15.7959 19.9062 15.5659 19.8402 15.3287 19.832C14.844 19.8147 14.3802 20.0371 14.0892 20.4255L14.0794 20.439L14.0486 20.4829L14.0414 20.4933C13.9793 20.5865 13.8756 20.6421 13.764 20.6421C13.5805 20.6421 13.4312 20.4928 13.4312 20.3112C13.4337 20.032 13.2369 19.7895 12.963 19.7349C12.6897 19.6804 12.415 19.8281 12.31 20.0867C12.1964 20.3669 12.1388 20.6633 12.1388 20.9679C12.1388 21.5978 12.3882 22.1905 12.8411 22.6367C13.2941 23.0831 13.8892 23.3254 14.521 23.3142C15.0704 23.3061 15.5907 23.1064 16 22.7603C16.4092 23.1064 16.9296 23.306 17.4789 23.3142C17.4908 23.3144 17.5027 23.3145 17.5145 23.3145C18.1315 23.3145 18.7144 23.0747 19.1588 22.6368C19.6117 22.1907 19.8611 21.598 19.8611 20.9679C19.8611 20.6634 19.8035 20.367 19.6899 20.0869ZM18.4067 21.8732C18.1597 22.1165 17.8379 22.249 17.495 22.2425C17.0724 22.2362 16.681 22.0207 16.4482 21.6661C16.3491 21.5152 16.1807 21.4243 16.0001 21.4243C15.8195 21.4243 15.6512 21.5152 15.552 21.6661C15.3192 22.0208 14.9279 22.2364 14.5052 22.2425C14.1627 22.2459 13.8405 22.1164 13.5936 21.8732C13.5309 21.8114 13.4753 21.7445 13.4272 21.6735C13.5352 21.7002 13.648 21.7143 13.7642 21.7143C14.2326 21.7143 14.6678 21.4826 14.9295 21.094L14.9513 21.063C15.0334 20.9569 15.1565 20.8984 15.2919 20.9034C15.4057 20.9074 15.5145 20.9612 15.5904 21.0511C15.6922 21.1718 15.8421 21.2415 16 21.2415C16.158 21.2415 16.3079 21.1718 16.4097 21.0511C16.4856 20.9611 16.5944 20.9073 16.7082 20.9034C16.8432 20.8999 16.9667 20.9569 17.0489 21.063L17.0707 21.094C17.3325 21.4825 17.7676 21.7143 18.2361 21.7143C18.3522 21.7143 18.4651 21.7002 18.573 21.6735C18.525 21.7444 18.4694 21.8114 18.4067 21.8732Z" stroke="#F3F3F3"/>
<path d="M21.0026 17.4429C21.409 17.4429 21.7386 17.1135 21.7386 16.7069V15.1397C21.7386 13.3326 20.8753 11.6298 19.4489 10.5535V3.95656C19.4489 3.55003 19.1194 3.22056 18.7129 3.22056C18.5564 3.22056 18.4287 3.0929 18.4287 2.93644V1.01933C18.4287 1.01933 18.4287 1.01932 18.4287 1.01931C18.4288 0.346773 17.8819 -0.2 17.2095 -0.2H14.7555C14.083 -0.2 13.5362 0.346793 13.5362 1.01931V2.93644C13.5362 3.0929 13.4085 3.22056 13.252 3.22056C12.8455 3.22056 12.516 3.55003 12.516 3.95656V10.5808C11.11 11.6581 10.2614 13.3437 10.2614 15.1398V29.3937C10.2614 30.9412 11.5201 32.1999 13.0676 32.1999H18.9324C20.4799 32.1999 21.7386 30.9413 21.7386 29.3937V19.0381C21.7386 18.6316 21.409 18.3021 21.0026 18.3021C20.5961 18.3021 20.2666 18.6316 20.2666 19.0381V29.3937C20.2666 30.1292 19.6679 30.7279 18.9324 30.7279H13.0676C12.3321 30.7279 11.7334 30.1292 11.7334 29.3937V15.1398C11.7334 13.6784 12.4896 12.3135 13.7187 11.5338H18.2805C19.5089 12.3131 20.2666 13.6815 20.2666 15.1398V16.707C20.2666 17.1135 20.5961 17.4429 21.0026 17.4429ZM17.977 10.0618H13.988V4.53075C14.5894 4.25211 15.0082 3.6427 15.0082 2.93644V1.272H16.9568V2.93644C16.9568 3.6427 17.3756 4.25211 17.977 4.53075V10.0618Z" fill="#F3F3F3" stroke="#F3F3F3" stroke-width="0.4"/>
</g>
<defs>
<clipPath id="clip0_533_3342">
<rect width="32" height="32" fill="white"/>
</clipPath>
</defs>
</svg>
